name C:\Users\u0101727\Documents\MyRepositories\upper-imu-dc\Results\main_tracking\Case_40\FLX01_angularVelocities_bodyFrame.mot
datacolumns 4
datarows 129
range 2.01000000 3.29000000
endheader 
time	radius_imu_x	radius_imu_y	radius_imu_z	
          2.01000000	         -1.38808824	          0.42525799	          0.17085759	
          2.02000000	         -1.34773192	          0.51780750	          0.05513593	
          2.03000000	         -1.30886130	          0.59688085	         -0.04571491	
          2.04000000	         -1.27065207	          0.65977824	         -0.13119968	
          2.05000000	         -1.23223019	          0.70162637	         -0.20119216	
          2.06000000	         -1.19295679	          0.71601351	         -0.25595650	
          2.07000000	         -1.15269736	          0.69676600	         -0.29618270	
          2.08000000	         -1.11199321	          0.64030295	         -0.32302165	
          2.09000000	         -1.07208176	          0.54783589	         -0.33809456	
          2.10000000	         -1.03474188	          0.42671535	         -0.34344744	
          2.11000000	         -1.00195381	          0.29032892	         -0.34142416	
          2.12000000	         -0.97541475	          0.15622003	         -0.33446015	
          2.13000000	         -0.95605141	          0.04258356	         -0.32484578	
          2.14000000	         -0.94373556	         -0.03600906	         -0.31453886	
          2.15000000	         -0.93736595	         -0.07200283	         -0.30509119	
          2.16000000	         -0.93530681	         -0.06575340	         -0.29769452	
          2.17000000	         -0.93595603	         -0.02374122	         -0.29328029	
          2.18000000	         -0.93814782	          0.04454166	         -0.29258791	
          2.19000000	         -0.94123028	          0.12932073	         -0.29615852	
          2.20000000	         -0.94486087	          0.22179064	         -0.30426659	
          2.21000000	         -0.94869589	          0.31386811	         -0.31683582	
          2.22000000	         -0.95216833	          0.39748390	         -0.33339654	
          2.23000000	         -0.95446900	          0.46466429	         -0.35312801	
          2.24000000	         -0.95471708	          0.50873217	         -0.37498986	
          2.25000000	         -0.95220757	          0.52594211	         -0.39790507	
          2.26000000	         -0.94660874	          0.51671603	         -0.42094131	
          2.27000000	         -0.93803477	          0.48604378	         -0.44344457	
          2.28000000	         -0.92698522	          0.44292387	         -0.46509824	
          2.29000000	         -0.91418701	          0.39890980	         -0.48590132	
          2.30000000	         -0.90039149	          0.36601708	         -0.50608071	
          2.31000000	         -0.88617466	          0.35433424	         -0.52596318	
          2.32000000	         -0.87177713	          0.36972257	         -0.54583330	
          2.33000000	         -0.85702051	          0.41220258	         -0.56580497	
          2.34000000	         -0.84133921	          0.47576914	         -0.58573722	
          2.35000000	         -0.82393295	          0.54990771	         -0.60521759	
          2.36000000	         -0.80398650	          0.62218376	         -0.62361854	
          2.37000000	         -0.78088454	          0.68090033	         -0.64021319	
          2.38000000	         -0.75437604	          0.71721060	         -0.65432052	
          2.39000000	         -0.72466058	          0.72643908	         -0.66543629	
          2.40000000	         -0.69237334	          0.70842144	         -0.67330655	
          2.41000000	         -0.65847427	          0.66690428	         -0.67792403	
          2.42000000	         -0.62409000	          0.60843305	         -0.67946393	
          2.43000000	         -0.59036543	          0.54120174	         -0.67819765	
          2.44000000	         -0.55835737	          0.47404242	         -0.67442181	
          2.45000000	         -0.52897745	          0.41547284	         -0.66842440	
          2.46000000	         -0.50297552	          0.37265957	         -0.66049137	
          2.47000000	         -0.48093920	          0.35027258	         -0.65093867	
          2.48000000	         -0.46328552	          0.34946939	         -0.64014570	
          2.49000000	         -0.45024389	          0.36749661	         -0.62857096	
          2.50000000	         -0.44184208	          0.39829028	         -0.61674228	
          2.51000000	         -0.43789062	          0.43391119	         -0.60522134	
          2.52000000	         -0.43795564	          0.46622313	         -0.59454599	
          2.53000000	         -0.44133759	          0.48832530	         -0.58515948	
          2.54000000	         -0.44709599	          0.49554348	         -0.57734367	
          2.55000000	         -0.45413913	          0.48590597	         -0.57117656	
          2.56000000	         -0.46135666	          0.46009680	         -0.56652820	
          2.57000000	         -0.46775153	          0.42101385	         -0.56309553	
          2.58000000	         -0.47253886	          0.37314668	         -0.56046509	
          2.59000000	         -0.47520785	          0.32191834	         -0.55819176	
          2.60000000	         -0.47556335	          0.27299897	         -0.55588364	
          2.61000000	         -0.47375498	          0.23157407	         -0.55327635	
          2.62000000	         -0.47026978	          0.20163107	         -0.55027032	
          2.63000000	         -0.46585378	          0.18538588	         -0.54691288	
          2.64000000	         -0.46136350	          0.18299985	         -0.54333545	
          2.65000000	         -0.45759622	          0.19272267	         -0.53968241	
          2.66000000	         -0.45515622	          0.21146985	         -0.53606804	
          2.67000000	         -0.45437619	          0.23564304	         -0.53257196	
          2.68000000	         -0.45527621	          0.26184868	         -0.52925849	
          2.69000000	         -0.45754720	          0.28722386	         -0.52620078	
          2.70000000	         -0.46058252	          0.30938059	         -0.52350137	
          2.71000000	         -0.46359249	          0.32628237	         -0.52130890	
          2.72000000	         -0.46579397	          0.33636975	         -0.51982669	
          2.73000000	         -0.46660942	          0.33894939	         -0.51930247	
          2.74000000	         -0.46579160	          0.33453163	         -0.51999263	
          2.75000000	         -0.46342055	          0.32474969	         -0.52210576	
          2.76000000	         -0.45977950	          0.31179248	         -0.52573909	
          2.77000000	         -0.45518117	          0.29765746	         -0.53082657	
          2.78000000	         -0.44984000	          0.28364168	         -0.53711794	
          2.79000000	         -0.44383610	          0.27030325	         -0.54419550	
          2.80000000	         -0.43715351	          0.25778328	         -0.55152276	
          2.81000000	         -0.42974571	          0.24615623	         -0.55851164	
          2.82000000	         -0.42157879	          0.23556213	         -0.56459034	
          2.83000000	         -0.41263502	          0.22608005	         -0.56926215	
          2.84000000	         -0.40289750	          0.21754049	         -0.57215486	
          2.85000000	         -0.39234987	          0.20957447	         -0.57306151	
          2.86000000	         -0.38100932	          0.20197856	         -0.57196696	
          2.87000000	         -0.36897483	          0.19515493	         -0.56904867	
          2.88000000	         -0.35645135	          0.19024153	         -0.56464207	
          2.89000000	         -0.34372481	          0.18871788	         -0.55917526	
          2.90000000	         -0.33109661	          0.19163672	         -0.55309044	
          2.91000000	         -0.31880648	          0.19889554	         -0.54676890	
          2.92000000	         -0.30696421	          0.20894707	         -0.54046499	
          2.93000000	         -0.29549612	          0.21909961	         -0.53425129	
          2.94000000	         -0.28411236	          0.22624365	         -0.52798630	
          2.95000000	         -0.27231355	          0.22765739	         -0.52132461	
          2.96000000	         -0.25946464	          0.22160369	         -0.51378415	
          2.97000000	         -0.24495276	          0.20766959	         -0.50486165	
          2.98000000	         -0.22840521	          0.18697604	         -0.49416040	
          2.99000000	         -0.20989248	          0.16225984	         -0.48148872	
          3.00000000	         -0.19001818	          0.13754515	         -0.46690846	
          3.01000000	         -0.16982922	          0.11717117	         -0.45072930	
          3.02000000	         -0.15056036	          0.10443382	         -0.43344818	
          3.03000000	         -0.13330871	          0.10049815	         -0.41564339	
          3.04000000	         -0.11875901	          0.10409724	         -0.39784960	
          3.05000000	         -0.10705172	          0.11204898	         -0.38045086	
          3.06000000	         -0.09783212	          0.12028166	         -0.36362464	
          3.07000000	         -0.09044848	          0.12501123	         -0.34734782	
          3.08000000	         -0.08420059	          0.12380110	         -0.33144916	
          3.09000000	         -0.07853060	          0.11631701	         -0.31568206	
          3.10000000	         -0.07309786	          0.10458532	         -0.29979779	
          3.11000000	         -0.06774169	          0.09253458	         -0.28360713	
          3.12000000	         -0.06237850	          0.08480199	         -0.26702014	
          3.13000000	         -0.05689850	          0.08518943	         -0.25005984	
          3.14000000	         -0.05111994	          0.09538987	         -0.23285730	
          3.15000000	         -0.04482616	          0.11450117	         -0.21564116	
          3.16000000	         -0.03786543	          0.13952239	         -0.19872419	
          3.17000000	         -0.03025389	          0.16656271	         -0.18247558	
          3.18000000	         -0.02221354	          0.19208712	         -0.16727326	
          3.19000000	         -0.01412106	          0.21360280	         -0.15344927	
          3.20000000	         -0.00640536	          0.22974697	         -0.14124723	
          3.21000000	          0.00055139	          0.24013120	         -0.13079408	
          3.22000000	          0.00648548	          0.24516657	         -0.12207486	
          3.23000000	          0.01129383	          0.24581651	         -0.11491074	
          3.24000000	          0.01504083	          0.24320134	         -0.10895781	
          3.25000000	          0.01792110	          0.23814294	         -0.10374216	
          3.26000000	          0.02017892	          0.23086038	         -0.09872908	
          3.27000000	          0.02200336	          0.22098636	         -0.09340891	
          3.28000000	          0.02343951	          0.20788876	         -0.08737630	
          3.29000000	          0.02435770	          0.19111406	         -0.08038036	
